<svg width="42" height="42" viewBox="0 0 42 42" fill="none" xmlns="http://www.w3.org/2000/svg">
<path d="M23.2432 13.4756L23.5654 14.8057L24.7344 14.0938L32.8516 9.14746L27.9062 17.2656L27.1943 18.4346L28.5244 18.7568L37.7617 21L28.5244 23.2432L27.1943 23.5654L27.9062 24.7344L32.8516 32.8516L24.7344 27.9062L23.5654 27.1943L23.2432 28.5244L21 37.7617L18.7568 28.5244L18.4346 27.1943L17.2656 27.9062L9.14746 32.8516L14.0938 24.7344L14.8057 23.5654L13.4756 23.2432L4.2373 21L13.4756 18.7568L14.8057 18.4346L14.0938 17.2656L9.14746 9.14746L17.2656 14.0938L18.4346 14.8057L18.7568 13.4756L21 4.2373L23.2432 13.4756Z" fill="#EFEFEF" stroke="#333333" stroke-width="2"/>
</svg>
