<svg width="65" height="30" viewBox="0 0 65 30" fill="none" xmlns="http://www.w3.org/2000/svg">
<g filter="url(#filter0_d_2_70)">
<path d="M62.98 6.18784L59.567 20H53.6626L57.0756 6.18784H62.98ZM57.0756 2.87293C57.0756 1.49171 58.3384 0 60.6933 0C62.707 0 63.6626 1.10497 63.6626 2.29282C63.6626 3.67403 62.3998 5.16575 60.0448 5.16575C58.0312 5.16575 57.0756 4.06077 57.0756 2.87293Z" fill="#F3BB44"/>
<path d="M46.7677 11.3535H44.6995L45.5859 7.50168H47.691L48.5404 4H54.9296L54.0802 7.50168H57.6626L56.7393 11.3535H53.1569L51.0518 20H44.6626L46.7677 11.3535Z" fill="#FFCF68"/>
<path d="M37.6058 11.3535H35.6967L36.5149 7.50168H38.4581L39.2421 4H45.1399L44.3558 7.50168H47.6626L46.8103 11.3535H43.5035L41.5603 20H35.6626L37.6058 11.3535Z" fill="#FFCF68"/>
<path fill-rule="evenodd" clip-rule="evenodd" d="M28.6979 7C33.7179 7.00008 35.9121 10.3199 35.9121 13.4374C35.9121 13.9857 35.8521 14.5052 35.7319 15.0246H26.0225C26.0225 16.5256 26.5333 17.3916 28.3367 17.3917C29.8998 17.3917 30.3812 16.8433 30.6517 16.3237H35.2508C34.5594 18.2866 33.0565 21 28.0064 21C23.5412 21 21.2273 18.1529 20.9423 15.0246C20.9222 14.8044 20.9121 14.5826 20.9121 14.3606C20.9122 10.7235 23.5577 7 28.6979 7ZM28.7281 10.3483C27.0447 10.3483 26.503 11.359 26.3527 12.1673H30.8923C30.8923 11.3591 30.4713 10.3484 28.7281 10.3483Z" fill="#F3BB44"/>
<path d="M11.7285 2.22363C13.9602 2.22368 15.6162 2.6557 16.6602 3.51953L16.876 2.44043H22.3838L19.3965 19.2158C18.4965 24.3278 14.7158 26.3438 9.42383 26.3438C3.70024 26.3436 1.36012 23.1042 1 20.4043H6.47168C6.61585 21.1962 7.76836 21.916 9.78418 21.916C11.98 21.916 13.5998 21.304 13.96 18.8564L14.1396 17.668C13.4557 18.3519 12.8078 19.0723 10.2881 19.0723C4.99611 19.0722 2.58398 15.4358 2.58398 11.5479C2.58406 7.04789 5.82458 2.22363 11.7285 2.22363ZM10.5068 8.31543L8.66211 7.75L9.22754 9.59473L5.91211 10.5L9.22754 11.4053L8.66211 13.25L10.5068 12.6846L11.4121 16L12.3174 12.6846L14.1621 13.25L13.5967 11.4053L16.9121 10.5L13.5967 9.59473L14.1621 7.75L12.3174 8.31543L11.4121 5L10.5068 8.31543Z" fill="#FFAE00"/>
</g>
<defs>
<filter id="filter0_d_2_70" x="0" y="0" width="64.6626" height="29.3438" filterUnits="userSpaceOnUse" color-interpolation-filters="sRGB">
<feFlood flood-opacity="0" result="BackgroundImageFix"/>
<feColorMatrix in="SourceAlpha" type="matrix" values="0 0 0 0 0 0 0 0 0 0 0 0 0 0 0 0 0 0 127 0" result="hardAlpha"/>
<feOffset dy="2"/>
<feGaussianBlur stdDeviation="0.5"/>
<feComposite in2="hardAlpha" operator="out"/>
<feColorMatrix type="matrix" values="0 0 0 0 0 0 0 0 0 0 0 0 0 0 0 0 0 0 0.25 0"/>
<feBlend mode="normal" in2="BackgroundImageFix" result="effect1_dropShadow_2_70"/>
<feBlend mode="normal" in="SourceGraphic" in2="effect1_dropShadow_2_70" result="shape"/>
</filter>
</defs>
</svg>
